<svg xmlns="http://www.w3.org/2000/svg"  viewBox="0 0 64 64" width="64px" height="64px"><path fill="#7083a6" d="M43.9,24a10.858,10.858,0,0,0-.111-1.539,1.3,1.3,0,0,1,.693-1.308l.815-.45a1.312,1.312,0,0,0,.514-1.836l-2.255-3.734a1.442,1.442,0,0,0-1.921-.492l-.824.455a1.5,1.5,0,0,1-1.6-.131A11.979,11.979,0,0,0,36.578,13.5a1.38,1.38,0,0,1-.916-1.259v-.9A1.377,1.377,0,0,0,34.255,10h-4.51a1.377,1.377,0,0,0-1.407,1.344v.9a1.38,1.38,0,0,1-.916,1.259,11.979,11.979,0,0,0-2.631,1.461,1.5,1.5,0,0,1-1.6.131l-.824-.455a1.442,1.442,0,0,0-1.921.492l-2.255,3.734A1.312,1.312,0,0,0,18.7,20.7l.815.45a1.3,1.3,0,0,1,.693,1.308,10.725,10.725,0,0,0,0,3.078,1.3,1.3,0,0,1-.693,1.308l-.815.45a1.312,1.312,0,0,0-.514,1.836l2.255,3.734a1.442,1.442,0,0,0,1.921.492l.824-.455a1.5,1.5,0,0,1,1.6.131A11.979,11.979,0,0,0,27.422,34.5a1.38,1.38,0,0,1,.916,1.259v.9A1.377,1.377,0,0,0,29.745,38h4.51a1.377,1.377,0,0,0,1.407-1.344v-.9a1.38,1.38,0,0,1,.916-1.259,11.979,11.979,0,0,0,2.631-1.461,1.5,1.5,0,0,1,1.6-.131l.824.455a1.442,1.442,0,0,0,1.921-.492l2.255-3.734A1.312,1.312,0,0,0,45.3,27.3l-.815-.45a1.3,1.3,0,0,1-.693-1.308A10.858,10.858,0,0,0,43.9,24Z"/><circle cx="32" cy="24" r="6" fill="#d8e0e6"/><circle cx="23" cy="43" r="2" fill="#ffe66d"/><circle cx="16" cy="50" r="2" fill="#ffe66d"/><circle cx="41" cy="43" r="2" fill="#ffe66d"/><circle cx="48" cy="50" r="2" fill="#ffe66d"/><polygon fill="#8197bf" points="3 18.755 10.073 22.493 9.34 15.32 3 18.755"/><polygon fill="#8197bf" points="53.257 20.622 61 18.611 58.637 25.423 53.257 20.622"/><path d="M46.922,27.87a2.332,2.332,0,0,0-1.142-1.449l-.815-.449a.316.316,0,0,1-.186-.291A12.007,12.007,0,0,0,44.9,24a11.884,11.884,0,0,0-.121-1.682.319.319,0,0,1,.187-.29l.815-.449a2.332,2.332,0,0,0,1.142-1.449,2.275,2.275,0,0,0-.254-1.78l-2.256-3.734a2.455,2.455,0,0,0-3.261-.85l-.823.454a.5.5,0,0,1-.528-.062,13.039,13.039,0,0,0-2.851-1.583c-.133-.053-.288-.171-.288-.33v-.9A2.378,2.378,0,0,0,34.255,9h-4.51a2.378,2.378,0,0,0-2.406,2.344v.9c0,.159-.155.277-.289.331a13.009,13.009,0,0,0-2.85,1.582.5.5,0,0,1-.528.062l-.823-.454a2.457,2.457,0,0,0-3.262.85L17.333,18.35a2.272,2.272,0,0,0-.255,1.78,2.332,2.332,0,0,0,1.142,1.449l.815.449a.316.316,0,0,1,.186.291A12.007,12.007,0,0,0,19.1,24a11.884,11.884,0,0,0,.121,1.682.319.319,0,0,1-.187.29l-.815.449a2.332,2.332,0,0,0-1.142,1.449,2.275,2.275,0,0,0,.254,1.78l2.256,3.734a2.455,2.455,0,0,0,3.261.85l.823-.454a.5.5,0,0,1,.528.062,13.039,13.039,0,0,0,2.851,1.583c.133.053.288.171.288.33v.9A2.378,2.378,0,0,0,29.745,39h4.51a2.378,2.378,0,0,0,2.406-2.344v-.9c0-.159.155-.277.289-.331a13.009,13.009,0,0,0,2.85-1.582.5.5,0,0,1,.528-.062l.823.454a2.454,2.454,0,0,0,3.262-.85l2.254-3.734A2.272,2.272,0,0,0,46.922,27.87Zm-1.967.746L42.7,32.35a.447.447,0,0,1-.583.133l-.823-.454a2.5,2.5,0,0,0-2.677.2,10.961,10.961,0,0,1-2.411,1.338,2.381,2.381,0,0,0-1.546,2.188v.9a.379.379,0,0,1-.406.344h-4.51a.379.379,0,0,1-.406-.344v-.9a2.379,2.379,0,0,0-1.545-2.187,10.953,10.953,0,0,1-2.412-1.34,2.563,2.563,0,0,0-1.51-.5,2.415,2.415,0,0,0-1.167.3l-.823.454a.449.449,0,0,1-.582-.133l-2.256-3.734a.286.286,0,0,1-.034-.229.342.342,0,0,1,.177-.215l.815-.45A2.312,2.312,0,0,0,21.2,25.4a9.934,9.934,0,0,1-.1-1.4,10.06,10.06,0,0,1,.1-1.4A2.313,2.313,0,0,0,20,20.277l-.815-.449a.342.342,0,0,1-.177-.215.283.283,0,0,1,.035-.229L21.3,15.65a.45.45,0,0,1,.583-.133l.823.454a2.5,2.5,0,0,0,2.677-.2,10.961,10.961,0,0,1,2.411-1.338,2.381,2.381,0,0,0,1.546-2.188v-.9A.379.379,0,0,1,29.745,11h4.51a.379.379,0,0,1,.406.344v.9a2.379,2.379,0,0,0,1.545,2.187,10.953,10.953,0,0,1,2.412,1.34,2.5,2.5,0,0,0,2.677.2l.823-.454a.446.446,0,0,1,.582.133l2.256,3.734a.286.286,0,0,1,.034.229.342.342,0,0,1-.177.215l-.815.45A2.312,2.312,0,0,0,42.8,22.6a9.934,9.934,0,0,1,.1,1.4,10.06,10.06,0,0,1-.1,1.4A2.313,2.313,0,0,0,44,27.723l.815.449a.342.342,0,0,1,.177.215A.283.283,0,0,1,44.955,28.616Z"/><path d="M32,17a7,7,0,1,0,7,7A7.008,7.008,0,0,0,32,17Zm0,12a5,5,0,1,1,5-5A5.006,5.006,0,0,1,32,29Z"/><path d="M30,62V48a1,1,0,0,0-.293-.707l-2-2-1.414,1.414L28,48.414V62Z"/><path d="M23,62V55a1,1,0,0,0-.293-.707l-2-2-1.414,1.414L21,55.414V62Z"/><path d="M34.293,47.293A1,1,0,0,0,34,48V62h2V48.414l1.707-1.707-1.414-1.414Z"/><path d="M26,43a3,3,0,1,0-3,3A3,3,0,0,0,26,43Zm-4,0a1,1,0,1,1,1,1A1,1,0,0,1,22,43Z"/><path d="M13,50a3,3,0,1,0,3-3A3,3,0,0,0,13,50Zm4,0a1,1,0,1,1-1-1A1,1,0,0,1,17,50Z"/><path d="M44,43a3,3,0,1,0-3,3A3,3,0,0,0,44,43Zm-4,0a1,1,0,1,1,1,1A1,1,0,0,1,40,43Z"/><path d="M48,53a3,3,0,1,0-3-3A3,3,0,0,0,48,53Zm0-4a1,1,0,1,1-1,1A1,1,0,0,1,48,49Z"/><path d="M43,55.414l1.707-1.707-1.414-1.414-2,2A1,1,0,0,0,41,55v7h2Z"/><path d="M2.533,19.64l2.912,1.539A27.884,27.884,0,0,0,9.18,46.227l1.629-1.16A25.877,25.877,0,0,1,7.24,22.127l2.366,1.251a1,1,0,0,0,1.462-.986l-.7-6.807a25.981,25.981,0,0,1,45.172,3.409l-2.538.66a1,1,0,0,0-.415,1.714l5.069,4.524A25.171,25.171,0,0,1,58,30a25.82,25.82,0,0,1-4.822,15.085l1.629,1.162A27.818,27.818,0,0,0,60,30a27.28,27.28,0,0,0-.364-4.407l2.308-6.655a1,1,0,0,0-1.2-1.295l-3.239.841A27.982,27.982,0,0,0,8.656,14.553L2.523,17.876a1,1,0,0,0,.01,1.764Zm56.909.408-1.258,3.63L55.316,21.12ZM8.5,16.914l.391,3.822-3.77-1.992Z"/></svg>